# xmcd
#
# Track frame offsets:
#	150
#	7133
#	15171
#	23037
#	26644
#	32050
#	38795
#	44695
#	53858
#	64200
#	74246
#	84879
#	91278
#	100804
#	106058
#	113110
#	120965
#	133611
#	141980
#	157455
#	177945
#	187493
#	195029
#	206060
#	221568
#	227676
#
# Disc length: 3119 seconds
#
# Revision: 1
# Processed by: cddbd v1.5.2PL0 Copyright (c) Steve Scherf et al.
# Submitted via: audiograbber 1.83.01
#
DISCID=700c2d1a
DTITLE=Zvonko Bogdan - Najveci hitovi - Ko te ima, taj te nema
DYEAR=2006
DGENRE=Folk
TTITLE0=Kraj jezera
TTITLE1=Fijaker stari
TTITLE2=Govori se da me varas
TTITLE3=Ova nasa livada
TTITLE4=Seoska sam lola
TTITLE5=Temerav
TTITLE6=Cetir' konja debela
TTITLE7=U tom Somboru
TTITLE8=Kad sam bio mladjan lovac ja
TTITLE9=Ne vredi plakati
TTITLE10=Bolujem ja
TTITLE11=Ta tvoja suknja plava
TTITLE12=Ako jednom odes ti
TTITLE13=kad sam bio vojnik u Somboru
TTITLE14=Moja mala nema mane
TTITLE15=U ranu zoru
TTITLE16=Zivim zivot k'o skitnica
TTITLE17=Tancuj tancuj
TTITLE18=Ko te ima taj te nema
TTITLE19=Vec odavno spremam svog mrkova
TTITLE20=Kada padne prvi sneg
TTITLE21=Da zna zora
TTITLE22=Rastao sam pored Dunava
TTITLE23=Osam tamburasa
TTITLE24=Evo banke Cigane moj
TTITLE25=Nema lepse devojke
EXTD=Zvonko Bogdan\nNajveci hitovi: Ko te ima, taj te nema
EXTT0=
EXTT1=
EXTT2=
EXTT3=
EXTT4=
EXTT5=
EXTT6=
EXTT7=
EXTT8=
EXTT9=
EXTT10=
EXTT11=
EXTT12=
EXTT13=
EXTT14=
EXTT15=
EXTT16=
EXTT17=
EXTT18=
EXTT19=
EXTT20=
EXTT21=
EXTT22=
EXTT23=
EXTT24=
EXTT25=
PLAYORDER=
